name rise30.2954peak35.7071fall66.7804.mot
datacolumns 19
datarows 56
range 6.256646 6.348310
endheader
time	ground_force1_vx	ground_force1_vy	ground_force1_vz	ground_force1_px	ground_force1_py	ground_force1_pz	ground_force2_vx	ground_force2_vy	ground_force2_vz	ground_force2_px	ground_force2_py	ground_force2_pz	ground_torque1_x	ground_torque1_y	ground_torque1_z	ground_torque2_x	ground_torque2_y	ground_torque2_z	
6.256646	32.529205	764.690946	58.836776	0.292814	0.000000	0.116890	0.000000	0.000000	0.000000	0.000000	0.000000	0.000000	0.000000	24.637130	0.000000	0.000000	0.000000	0.000000	
6.258323	31.991542	762.935357	58.622214	0.291638	0.000000	0.116899	0.000000	0.000000	0.000000	0.000000	0.000000	0.000000	0.000000	24.539710	0.000000	0.000000	0.000000	0.000000	
6.259979	31.453401	761.128372	58.398757	0.290419	0.000000	0.116910	0.000000	0.000000	0.000000	0.000000	0.000000	0.000000	0.000000	24.435172	0.000000	0.000000	0.000000	0.000000	
6.261644	30.915180	759.275556	58.166896	0.289160	0.000000	0.116922	0.000000	0.000000	0.000000	0.000000	0.000000	0.000000	0.000000	24.323811	0.000000	0.000000	0.000000	0.000000	
6.263327	30.377325	757.382467	57.927147	0.287862	0.000000	0.116936	0.000000	0.000000	0.000000	0.000000	0.000000	0.000000	0.000000	24.205951	0.000000	0.000000	0.000000	0.000000	
6.264983	29.840322	755.454644	57.680056	0.286526	0.000000	0.116952	0.000000	0.000000	0.000000	0.000000	0.000000	0.000000	0.000000	24.081936	0.000000	0.000000	0.000000	0.000000	
6.266651	29.304696	753.497585	57.426193	0.285155	0.000000	0.116969	0.000000	0.000000	0.000000	0.000000	0.000000	0.000000	0.000000	23.952137	0.000000	0.000000	0.000000	0.000000	
6.268326	28.771010	751.516737	57.166148	0.283751	0.000000	0.116987	0.000000	0.000000	0.000000	0.000000	0.000000	0.000000	0.000000	23.816942	0.000000	0.000000	0.000000	0.000000	
6.269981	28.239855	749.517478	56.900530	0.282316	0.000000	0.117007	0.000000	0.000000	0.000000	0.000000	0.000000	0.000000	0.000000	23.676755	0.000000	0.000000	0.000000	0.000000	
6.271648	27.711853	747.505100	56.629961	0.280853	0.000000	0.117027	0.000000	0.000000	0.000000	0.000000	0.000000	0.000000	0.000000	23.531997	0.000000	0.000000	0.000000	0.000000	
6.273325	27.187647	745.484804	56.355076	0.279364	0.000000	0.117048	0.000000	0.000000	0.000000	0.000000	0.000000	0.000000	0.000000	23.383100	0.000000	0.000000	0.000000	0.000000	
6.274979	26.667900	743.461675	56.076518	0.277854	0.000000	0.117070	0.000000	0.000000	0.000000	0.000000	0.000000	0.000000	0.000000	23.230508	0.000000	0.000000	0.000000	0.000000	
6.276650	26.153290	741.440681	55.794935	0.276325	0.000000	0.117092	0.000000	0.000000	0.000000	0.000000	0.000000	0.000000	0.000000	23.074669	0.000000	0.000000	0.000000	0.000000	
6.278326	25.644504	739.426652	55.510977	0.274780	0.000000	0.117114	0.000000	0.000000	0.000000	0.000000	0.000000	0.000000	0.000000	22.916040	0.000000	0.000000	0.000000	0.000000	
6.279984	25.142235	737.424276	55.225294	0.273223	0.000000	0.117137	0.000000	0.000000	0.000000	0.000000	0.000000	0.000000	0.000000	22.755076	0.000000	0.000000	0.000000	0.000000	
6.281650	24.647173	735.438084	54.938531	0.271657	0.000000	0.117159	0.000000	0.000000	0.000000	0.000000	0.000000	0.000000	0.000000	22.592236	0.000000	0.000000	0.000000	0.000000	
6.283322	24.160008	733.472445	54.651327	0.270087	0.000000	0.117181	0.000000	0.000000	0.000000	0.000000	0.000000	0.000000	0.000000	22.427977	0.000000	0.000000	0.000000	0.000000	
6.284979	23.681417	731.531553	54.364314	0.268515	0.000000	0.117202	0.000000	0.000000	0.000000	0.000000	0.000000	0.000000	0.000000	22.262749	0.000000	0.000000	0.000000	0.000000	
6.286644	23.212063	729.619425	54.078111	0.266946	0.000000	0.117222	0.000000	0.000000	0.000000	0.000000	0.000000	0.000000	0.000000	22.096999	0.000000	0.000000	0.000000	0.000000	
6.288316	22.752590	727.739889	53.793323	0.265384	0.000000	0.117242	0.000000	0.000000	0.000000	0.000000	0.000000	0.000000	0.000000	21.931165	0.000000	0.000000	0.000000	0.000000	
6.289979	22.303619	725.896582	53.510542	0.263832	0.000000	0.117260	0.000000	0.000000	0.000000	0.000000	0.000000	0.000000	0.000000	21.765676	0.000000	0.000000	0.000000	0.000000	
6.291651	21.865740	724.092941	53.230339	0.262294	0.000000	0.117277	0.000000	0.000000	0.000000	0.000000	0.000000	0.000000	0.000000	21.600948	0.000000	0.000000	0.000000	0.000000	
6.293321	21.439513	722.332204	52.953269	0.260774	0.000000	0.117292	0.000000	0.000000	0.000000	0.000000	0.000000	0.000000	0.000000	21.437388	0.000000	0.000000	0.000000	0.000000	
6.294977	21.025457	720.617404	52.679864	0.259275	0.000000	0.117305	0.000000	0.000000	0.000000	0.000000	0.000000	0.000000	0.000000	21.275385	0.000000	0.000000	0.000000	0.000000	
6.296649	20.624052	718.951366	52.410633	0.257801	0.000000	0.117317	0.000000	0.000000	0.000000	0.000000	0.000000	0.000000	0.000000	21.115318	0.000000	0.000000	0.000000	0.000000	
6.298318	20.235732	717.336707	52.146065	0.256354	0.000000	0.117326	0.000000	0.000000	0.000000	0.000000	0.000000	0.000000	0.000000	20.957547	0.000000	0.000000	0.000000	0.000000	
6.299985	19.860879	715.775832	51.886622	0.254940	0.000000	0.117334	0.000000	0.000000	0.000000	0.000000	0.000000	0.000000	0.000000	20.802415	0.000000	0.000000	0.000000	0.000000	
6.301647	19.499826	714.270939	51.632741	0.253559	0.000000	0.117338	0.000000	0.000000	0.000000	0.000000	0.000000	0.000000	0.000000	20.650252	0.000000	0.000000	0.000000	0.000000	
6.303310	19.152848	712.824017	51.384833	0.252216	0.000000	0.117340	0.000000	0.000000	0.000000	0.000000	0.000000	0.000000	0.000000	20.501366	0.000000	0.000000	0.000000	0.000000	
6.304976	18.820162	711.436846	51.143282	0.250913	0.000000	0.117340	0.000000	0.000000	0.000000	0.000000	0.000000	0.000000	0.000000	20.356050	0.000000	0.000000	0.000000	0.000000	
6.306651	18.501923	710.111002	50.908446	0.249651	0.000000	0.117337	0.000000	0.000000	0.000000	0.000000	0.000000	0.000000	0.000000	20.214578	0.000000	0.000000	0.000000	0.000000	
6.308331	18.198222	708.847858	50.680655	0.248434	0.000000	0.117331	0.000000	0.000000	0.000000	0.000000	0.000000	0.000000	0.000000	20.077206	0.000000	0.000000	0.000000	0.000000	
6.309976	17.909087	707.648587	50.460213	0.247262	0.000000	0.117322	0.000000	0.000000	0.000000	0.000000	0.000000	0.000000	0.000000	19.944173	0.000000	0.000000	0.000000	0.000000	
6.311647	17.634477	706.514168	50.247395	0.246138	0.000000	0.117310	0.000000	0.000000	0.000000	0.000000	0.000000	0.000000	0.000000	19.815699	0.000000	0.000000	0.000000	0.000000	
6.313311	17.374283	705.445391	50.042450	0.245062	0.000000	0.117295	0.000000	0.000000	0.000000	0.000000	0.000000	0.000000	0.000000	19.691987	0.000000	0.000000	0.000000	0.000000	
6.314985	17.128329	704.442858	49.845601	0.244036	0.000000	0.117277	0.000000	0.000000	0.000000	0.000000	0.000000	0.000000	0.000000	19.573222	0.000000	0.000000	0.000000	0.000000	
6.316653	16.896368	703.506993	49.657042	0.243060	0.000000	0.117256	0.000000	0.000000	0.000000	0.000000	0.000000	0.000000	0.000000	19.459572	0.000000	0.000000	0.000000	0.000000	
6.318322	16.678086	702.638046	49.476945	0.242133	0.000000	0.117231	0.000000	0.000000	0.000000	0.000000	0.000000	0.000000	0.000000	19.351189	0.000000	0.000000	0.000000	0.000000	
6.319977	16.473100	701.836101	49.305454	0.241257	0.000000	0.117204	0.000000	0.000000	0.000000	0.000000	0.000000	0.000000	0.000000	19.248208	0.000000	0.000000	0.000000	0.000000	
6.321651	16.280958	701.101082	49.142689	0.240431	0.000000	0.117174	0.000000	0.000000	0.000000	0.000000	0.000000	0.000000	0.000000	19.150748	0.000000	0.000000	0.000000	0.000000	
6.323325	16.101145	700.432759	48.988748	0.239653	0.000000	0.117141	0.000000	0.000000	0.000000	0.000000	0.000000	0.000000	0.000000	19.058915	0.000000	0.000000	0.000000	0.000000	
6.324977	15.933079	699.830758	48.843705	0.238923	0.000000	0.117105	0.000000	0.000000	0.000000	0.000000	0.000000	0.000000	0.000000	18.972796	0.000000	0.000000	0.000000	0.000000	
6.326648	15.776116	699.294567	48.707612	0.238240	0.000000	0.117066	0.000000	0.000000	0.000000	0.000000	0.000000	0.000000	0.000000	18.892468	0.000000	0.000000	0.000000	0.000000	
6.328325	15.629552	698.823547	48.580499	0.237601	0.000000	0.117025	0.000000	0.000000	0.000000	0.000000	0.000000	0.000000	0.000000	18.817991	0.000000	0.000000	0.000000	0.000000	
6.329979	15.492625	698.416934	48.462377	0.237005	0.000000	0.116982	0.000000	0.000000	0.000000	0.000000	0.000000	0.000000	0.000000	18.749413	0.000000	0.000000	0.000000	0.000000	
6.331654	15.364520	698.073857	48.353238	0.236450	0.000000	0.116935	0.000000	0.000000	0.000000	0.000000	0.000000	0.000000	0.000000	18.686770	0.000000	0.000000	0.000000	0.000000	
6.333311	15.244370	697.793336	48.253055	0.235933	0.000000	0.116887	0.000000	0.000000	0.000000	0.000000	0.000000	0.000000	0.000000	18.630084	0.000000	0.000000	0.000000	0.000000	
6.334976	15.131260	697.574299	48.161784	0.235452	0.000000	0.116837	0.000000	0.000000	0.000000	0.000000	0.000000	0.000000	0.000000	18.579366	0.000000	0.000000	0.000000	0.000000	
6.336643	15.024232	697.415588	48.079363	0.235003	0.000000	0.116785	0.000000	0.000000	0.000000	0.000000	0.000000	0.000000	0.000000	18.534617	0.000000	0.000000	0.000000	0.000000	
6.338309	14.922290	697.315964	48.005716	0.234584	0.000000	0.116731	0.000000	0.000000	0.000000	0.000000	0.000000	0.000000	0.000000	18.495826	0.000000	0.000000	0.000000	0.000000	
6.339981	14.824402	697.274124	47.940751	0.234191	0.000000	0.116676	0.000000	0.000000	0.000000	0.000000	0.000000	0.000000	0.000000	18.462972	0.000000	0.000000	0.000000	0.000000	
6.341648	14.729503	697.288700	47.884364	0.233821	0.000000	0.116619	0.000000	0.000000	0.000000	0.000000	0.000000	0.000000	0.000000	18.436027	0.000000	0.000000	0.000000	0.000000	
6.343310	14.636507	697.358275	47.836436	0.233470	0.000000	0.116562	0.000000	0.000000	0.000000	0.000000	0.000000	0.000000	0.000000	18.414951	0.000000	0.000000	0.000000	0.000000	
6.344981	14.544303	697.481390	47.796835	0.233135	0.000000	0.116504	0.000000	0.000000	0.000000	0.000000	0.000000	0.000000	0.000000	18.399696	0.000000	0.000000	0.000000	0.000000	
6.346662	14.451767	697.656548	47.765419	0.232812	0.000000	0.116445	0.000000	0.000000	0.000000	0.000000	0.000000	0.000000	0.000000	18.390208	0.000000	0.000000	0.000000	0.000000	
6.348310	14.357761	697.882228	47.742035	0.232498	0.000000	0.116385	0.000000	0.000000	0.000000	0.000000	0.000000	0.000000	0.000000	18.386425	0.000000	0.000000	0.000000	0.000000	
